# xmcd
#
# Track frame offsets:
#	150
#	17831
#	35767
#	44714
#	52828
#	70640
#	85687
#	101104
#	116420
#	133597
#	151156
#	163330
#	178801
#	195853
#	211112
#
# Disc length: 3046 seconds
#
# Revision: 1
# Processed by: cddbd v1.5.2PL0 Copyright (c) Steve Scherf et al.
# Submitted via: audiograbber 1.83.01
#
DISCID=c50be40f
DTITLE=Chris Dewhurst - The Vesey Collection
DYEAR=1900
DGENRE=Counntry Dances
TTITLE0=01 Vesey 450 - Longways
TTITLE1=02 Big School Circle - Circle
TTITLE2=03 Founder's Day - 3C Longways
TTITLE3=04 The Veseyan - 3C Longways
TTITLE4=05 Harman's Reel - Sicilian Circle
TTITLE5=06 Oldham's Frolick - Longways
TTITLE6=07 Trinity Hill Circle - Circle
TTITLE7=08 The Mitre - Longways
TTITLE8=09 Eddowes Quadrille - Square
TTITLE9=10 Bedggood Square - Square
TTITLE10=11 Moor Hall - 4C Longways
TTITLE11=12 The Bishop of Exeter - Longways
TTITLE12=13 N.T.M. - Sicilian Circle
TTITLE13=14 Anstrad Contra - Longways
TTITLE14=15 Good Hope - Sicilian Circle
EXTD=
EXTT0=
EXTT1=
EXTT2=
EXTT3=
EXTT4=
EXTT5=
EXTT6=
EXTT7=
EXTT8=
EXTT9=
EXTT10=
EXTT11=
EXTT12=
EXTT13=
EXTT14=
PLAYORDER=
